<svg width="5672" height="1931" viewBox="0 0 5672 1931" fill="none" xmlns="http://www.w3.org/2000/svg">
<path opacity="0.3" d="M1440.86 0L1432.55 0L1432.55 1930.31H1440.86L1440.86 0Z" fill="#0D3B70"/>
<path d="M1432.56 1457.85C1432.56 1457.85 1358.86 1414.24 1211.45 1428.78C1128.4 1437.08 960.237 1474.46 904.181 1481.73C865.772 1487.96 837.744 1482.77 821.135 1450.58C812.83 1433.97 810.754 1406.97 828.402 1385.17C846.049 1366.48 876.153 1336.36 945.704 1318.71C947.78 1317.67 956.084 1317.67 960.237 1318.71C986.189 1323.9 1081.69 1342.59 1175.12 1335.33C1264.39 1329.1 1349.51 1300.02 1403.49 1277.18C1414.91 1271.99 1424.26 1267.83 1432.56 1263.68C1432.56 1258.49 1432.56 78.9136 1432.56 78.9136L1336.02 205.593C1336.02 205.593 1316.3 193.133 1289.31 183.788C1189.65 149.522 915.6 79.9519 673.729 240.897C605.216 288.662 545.008 352.001 499.332 425.725C500.37 426.763 502.447 427.801 503.485 428.84C512.827 436.108 522.17 444.415 530.474 454.799L531.513 455.837C532.551 456.875 532.551 456.875 533.589 457.914C543.969 470.374 552.274 481.796 556.426 496.333C560.579 510.87 560.579 527.484 557.464 540.982C555.388 548.251 552.274 556.558 547.084 563.826C543.969 567.98 540.855 572.133 537.741 576.286C535.665 578.363 533.589 580.44 532.551 581.478C526.322 586.67 522.17 589.785 515.941 592.9C503.485 599.13 491.028 601.207 480.647 601.207C464.038 602.245 446.391 600.169 428.743 594.977C416.286 642.741 409.02 693.621 409.02 743.462C409.02 913.752 483.761 1090.27 667.5 1227.34C667.5 1227.34 515.941 1256.41 446.391 1373.74C434.972 1392.43 425.629 1414.24 418.363 1438.12C409.02 1470.31 405.906 1506.65 411.096 1544.03C422.515 1622.95 466.114 1679.02 510.751 1713.29C587.569 1773.51 688.262 1772.47 749.508 1767.28C814.907 1762.09 1047.43 1739.25 1160.58 1730.94C1182.38 1728.86 1237.4 1722.63 1303.84 1746.51C1344.32 1761.05 1377.54 1784.93 1403.49 1811.93C1410.76 1820.24 1418.03 1828.54 1424.26 1836.85C1427.37 1841 1429.45 1845.16 1432.56 1848.27L1432.56 1457.85ZM728.746 740.347C728.746 560.711 874.077 414.303 1054.7 414.303C1234.29 414.303 1380.66 559.673 1380.66 740.347C1380.66 919.982 1235.33 1066.39 1054.7 1066.39C875.115 1065.35 729.784 919.982 728.746 740.347Z" fill="#0D3B70"/>
<path d="M480.628 413.269C437.029 388.348 393.43 379.003 358.135 393.54C347.754 397.694 337.374 403.924 329.069 413.269C313.498 407.039 271.975 392.502 219.033 386.272C125.607 375.888 128.721 310.472 127.683 260.63C126.645 234.672 132.873 161.987 80.9697 128.759C43.5991 102.8 0 95.5317 0 95.5317C0 95.5317 84.0839 119.414 101.731 164.063C119.378 202.482 115.226 229.48 113.15 255.439C111.074 301.126 108.998 381.08 195.158 397.693C277.166 413.269 306.232 441.304 309.346 445.458C306.232 454.803 306.232 466.225 307.27 475.57C311.422 512.951 340.488 549.294 386.163 575.252C399.658 583.559 414.191 588.751 427.686 592.905C439.105 543.063 471.285 467.263 499.313 424.691C494.123 421.576 486.856 416.384 480.628 413.269Z" fill="#0D3B70"/>
<g clip-path="url(#clip0_5756_1113)">
<path d="M3276.76 1256.92C3276.71 1391.52 3276.79 1526.12 3275.71 1660.69C3281.72 1820.08 3211.73 1925.97 3044.24 1929.67C2958.56 1933.69 2859.77 1919.48 2808.68 1842.96C2793.46 1827.15 2792.28 1803.46 2783.33 1783.89C2770.31 1753.97 2839.33 1769.28 2855.16 1768.02C2889.64 1767.26 2886.02 1821.24 2931.37 1842.39C3015.01 1883.13 3148.17 1867.87 3187.53 1772.96C3200.55 1716.27 3205.72 1650.18 3198.24 1594.44C3183.91 1590.58 3178.71 1611.28 3170.37 1619.34C3115.39 1681.23 3026.63 1701.69 2947.74 1682.02C2747.35 1643.56 2706.56 1361.31 2815.76 1215.81C2896.25 1100.84 3093.55 1088.39 3180.24 1201.84C3187.74 1217.07 3202.02 1212.06 3198 1195.9C3195.51 1137.43 3205.04 1137.72 3260.3 1141.45C3292.01 1138.19 3270.91 1234.1 3276.65 1256.87C3276.68 1256.92 3276.71 1256.92 3276.76 1256.92ZM3199.42 1398.3C3210.63 1116.91 2826.84 1120.75 2842.87 1405.6C2826.18 1703.48 3217.47 1683.7 3199.42 1398.3Z" fill="#0D3B70"/>
<path d="M3726.63 1404.13C3644.56 1404.63 3588.38 1403.45 3518.15 1404C3494 1417.74 3521.24 1487.21 3528.28 1510.25C3579.37 1651.42 3771.19 1658.93 3846.48 1534.71C3856.01 1518.74 3865.88 1489.11 3888.37 1506.55C3904.22 1518.84 3947.6 1524.88 3930.28 1552.2C3915.21 1577.42 3898.21 1601.32 3876.32 1621.1C3819.56 1679.08 3731.64 1696.41 3653.51 1685.67C3422.7 1672.33 3360.34 1351.83 3500.43 1200.58C3658.6 1036.98 3944.97 1142 3933.87 1378.75C3942.22 1417.37 3895.61 1400.5 3873.07 1402.95C3819.56 1402.34 3766.07 1405.23 3726.63 1404.13ZM3680.15 1192.96C3600.11 1188.1 3531.3 1247.65 3516.26 1325.11C3511.4 1337.38 3523.71 1345.81 3534.79 1344.4C3626.38 1344.4 3717.99 1344.37 3809.58 1344.37C3850.58 1352.14 3842.44 1325.93 3834.75 1297.32C3819.63 1227.69 3747.04 1190.2 3680.15 1192.96Z" fill="#0D3B70"/>
<path d="M5123.02 1402.68C5018.92 1405.15 4914.81 1404.26 4810.7 1404.13C4794.24 1404.08 4761.05 1397.12 4765.22 1423.38C4775.66 1639.41 5019.89 1700.75 5121.9 1506.81C5138.98 1494.33 5165.54 1518.63 5182.34 1526.17C5209.37 1546.06 5164.1 1582.78 5151.97 1601.09C5119.17 1640.44 5074.74 1670.41 5024.01 1680.15C4786.03 1738.89 4638.51 1535.55 4697.25 1313.85C4735.75 1112.26 5036.84 1050.51 5146.99 1225.06C5181.5 1272.55 5188.21 1329.74 5192.91 1386.24C5195.96 1415.06 5140.87 1398.53 5123.02 1402.68ZM4936.67 1344.82C4936.67 1344.68 4936.67 1344.55 4936.67 1344.42C4984.98 1344.4 5033.32 1344.47 5081.64 1344.34C5099.96 1344.29 5105.94 1334.44 5097.46 1318.42C5090.72 1301 5088.46 1282.25 5077.83 1266.04C5028.44 1176.73 4887.72 1170.11 4818.81 1239.38C4803.14 1253.59 4747.56 1337.67 4783.96 1344.29C4834.82 1345.63 4885.81 1344.4 4936.67 1344.82Z" fill="#0D3B70"/>
<path d="M5350.79 150.984C5567.15 140.293 5733.4 386.924 5649.92 584.986C5540.72 876.903 5102.21 848.533 5043.53 538.386C4995.95 349.44 5155.99 144.943 5350.79 150.984ZM5354.55 738.207C5671.36 732.612 5694.87 257.055 5385.8 205.701C5211.44 178.119 5064.08 357.74 5101.92 525.121C5122.42 642.04 5232.75 745.746 5354.55 738.207Z" fill="#0D3B70"/>
<path d="M4541.89 1464.49C4541.89 1518.58 4541.86 1572.64 4541.94 1626.72C4543.62 1645.74 4545.85 1671.22 4519.11 1668.23C4497.27 1665.63 4458.27 1678.87 4461.24 1644.01C4463 1545.27 4462.29 1446.53 4462.79 1347.76C4466.46 1282.38 4440.59 1202.99 4367.34 1191.7C4093.46 1144.36 4175.34 1476.84 4163.82 1643.85C4165.42 1675.24 4130.99 1666.49 4109.99 1668.89C4093.28 1668.02 4087.42 1662.55 4087.48 1645.74C4088.92 1566.07 4087.08 1486.4 4087.92 1406.76C4089.24 1334.18 4088.45 1261.62 4088.76 1189.05C4089.6 1173.78 4080.08 1143.84 4102.38 1141.53C4130.52 1140.53 4150.54 1136.25 4155.19 1147.52C4161.38 1162.57 4158.05 1167.56 4158.31 1190.12C4158.52 1210.48 4172.35 1206.36 4180.12 1194.06C4199.14 1168.98 4225.65 1150.35 4255.49 1140.61C4342.43 1107.17 4463.05 1117.31 4514.64 1203.78C4556.66 1283.32 4537.35 1378.07 4541.65 1464.49C4541.68 1464.49 4541.78 1464.49 4541.89 1464.49Z" fill="#0D3B70"/>
<path d="M2161.69 1430.82C2161.82 1346.86 2161.01 1262.91 2162.77 1178.99C2153.01 1131.65 2187.39 1141.5 2220.71 1141.08C2252.73 1136.4 2216.23 1222.72 2248.17 1200.34C2337.08 1079.69 2584.22 1096.87 2611.09 1261.73C2614.24 1392.2 2611.32 1522.99 2612.51 1653.54C2612.4 1666.42 2607.55 1670.43 2595 1668.86C2575.61 1663.5 2541.33 1679.18 2536.58 1651C2536.53 1541.88 2537.08 1432.5 2536.56 1323.25C2541.23 1210.87 2434.55 1166.43 2337.47 1197.74C2187.31 1241.98 2250.79 1514.45 2238.09 1638.26C2238.09 1663.97 2233.08 1669.04 2207.07 1668.83C2185.84 1668.73 2158.25 1672.25 2161.17 1642.49C2161.17 1571.9 2161.17 1501.32 2161.17 1430.76C2161.35 1430.82 2161.54 1430.82 2161.69 1430.82Z" fill="#0D3B70"/>
<path d="M2557.71 466.7C2557.71 550.101 2557.63 633.503 2557.76 716.904C2554.85 730.537 2567.31 797.1 2540.47 770.622C2442.87 646.059 2336.87 528.089 2240.53 402.344C2216.75 372.897 2188.75 347.154 2167.75 315.449C2164.16 307.174 2149.88 303.891 2150.93 316.289C2152.53 466.28 2151.17 616.297 2151.62 766.288C2154.13 790.402 2133.14 787.854 2115.74 787.434C2100.99 787.46 2095.98 776.033 2096.66 762.715C2095.45 567.254 2098.81 371.505 2095.17 176.175C2093.93 116.389 2179.85 255.794 2194.42 264.961C2248.01 330.553 2303.04 394.857 2355.92 461.026C2403.13 517.371 2448.33 578.655 2498.71 630.797C2504.41 632.715 2508.11 630.114 2507.11 624.282C2504.09 571.51 2508.58 518.711 2506.19 465.755C2505.59 397.458 2505.48 329.134 2504.09 260.864C2510.37 224.771 2478.87 135.985 2542.04 149.487C2566 153.769 2555.48 183.977 2557.58 201.156C2557.58 289.68 2557.58 378.203 2557.58 466.727C2557.63 466.7 2557.66 466.7 2557.71 466.7Z" fill="#0D3B70"/>
<path d="M5476.05 1689.77C5441.02 1686.59 5405.83 1684.33 5372.94 1669.52C5343.97 1656.36 5247.55 1582.75 5305.18 1558.11C5383.96 1510.83 5346.02 1555.01 5401.78 1594.36C5514.79 1683.04 5684.03 1540.46 5524.71 1454.14C5460.86 1419.57 5379.9 1406.78 5332.97 1346.71C5256.63 1242.55 5367.59 1111.53 5482.98 1121.62C5549.69 1117.28 5618.11 1150.25 5654.2 1207.78C5674.74 1236.7 5626.38 1243.39 5610.66 1258C5600.61 1265.04 5592.6 1263.96 5586.64 1253.17C5538.75 1143.16 5342 1187 5402.73 1304.55C5461.7 1368.96 5564.39 1361.63 5627.3 1422.57C5734.63 1549.18 5629.47 1693.68 5476.05 1689.77Z" fill="#0D3B70"/>
<path d="M4457.43 387.187C4457.62 308.619 4457.14 239.823 4457.46 167.27C4459.4 141.843 4513.91 142.447 4515.96 166.876C4505.01 322.121 4568.89 677.922 4426.68 759.826C4344.4 805.663 4223.39 803.299 4152.3 737.104C4072.57 654.596 4098.95 528.824 4094.64 424.461C4096.74 347.916 4094.64 271.397 4093.67 194.852C4092.49 178.04 4089.63 150.038 4113.59 150.459C4139.75 145.337 4152.35 154.53 4148.65 182.033C4157.13 307.988 4114.25 616.77 4190.06 699.094C4260.24 760.824 4409.12 755.255 4442.92 655.804C4467.28 570.617 4454.02 470.22 4457.43 387.187Z" fill="#0D3B70"/>
<path d="M2987.74 610.86C2997.76 733.111 2865.91 814.332 2756.03 775.009C2712.15 757.488 2677.12 726.229 2660.66 681.6C2654.94 674.428 2655.23 670.015 2661.42 663.711C2733.49 597.962 2686.15 712.097 2791.36 729.906C2844.55 742.594 2909.45 715.38 2924.18 658.93C2983.67 483.801 2738.95 477.68 2686.22 350.884C2645.31 235.016 2757.21 118.753 2873.39 158.996C2907.2 168.426 2930.76 191.516 2950.92 218.467C2963.83 233.965 2943.28 243.527 2931.47 250.383C2903.18 269.637 2881.69 174.678 2787.87 212.636C2740.42 230.078 2726.35 288.261 2742.7 332.707C2765.01 377.862 2812.98 403.289 2855.29 426.747C2924.49 464.573 2995.77 523.492 2987.74 610.86Z" fill="#0D3B70"/>
<path d="M4753.28 503.397C4754.25 412.116 4751.26 320.571 4754.56 229.421C4756.37 198.504 4716.51 215.184 4697.9 211.953C4670.66 212.478 4643.19 210.797 4616.1 212.11C4586.39 217.206 4587.26 146.23 4616.31 150.643C4723.54 150.617 4830.77 150.591 4938.01 150.564C4970.15 143.025 4974.41 174.678 4967.69 198.845C4964.2 236.408 4799.57 182.611 4811.04 229.158C4811.14 406.993 4810.57 584.881 4811.12 762.663C4811.72 772.619 4808.21 784.886 4796.66 786.252C4776.35 790.323 4749.71 788.721 4753.41 761.218C4753.44 675.269 4753.41 589.346 4753.41 503.397C4753.41 503.397 4753.36 503.397 4753.28 503.397Z" fill="#0D3B70"/>
<path d="M3796.88 509.701C3796.88 430.581 3796.8 351.436 3796.96 272.316C3792.92 251.17 3808.77 207.277 3774.1 210.691C3734.6 212.767 3695.06 212.688 3655.59 210.718C3632.62 209.431 3638.24 177.909 3640.34 162.122C3643.01 147.832 3660.47 150.748 3671.54 150.538C3777.93 150.432 3884.35 150.354 3990.74 150.249C4025.86 147.228 4021 211.322 3989.64 210.455C3948.99 210.77 3908.29 213.134 3867.74 210.429C3847.95 208.695 3854.75 233.229 3853.59 245.812C3853.8 417.132 3853.67 588.453 3853.46 759.747C3854.33 771.515 3850.81 790.139 3835.25 786.803C3811.87 787.197 3792.6 785.936 3796.78 756.463C3796.75 674.218 3796.75 591.946 3796.75 509.675C3796.8 509.701 3796.83 509.701 3796.88 509.701Z" fill="#0D3B70"/>
<path d="M3201.49 494.649C3201.31 403.867 3201.78 312.953 3201.41 222.275C3200.07 211.794 3193.72 206.515 3183.33 207.775C3143.07 212.609 3102.68 210.218 3062.35 209.929C3049.25 209.851 3042.95 202.601 3042.22 189.283C3026.45 126.371 3120.92 157.761 3156.59 151.746C3233.01 151.982 3309.48 151.509 3386.06 150.59C3417.06 145.704 3423.72 166.088 3417.5 192.619C3417.95 238.772 3250.25 183.714 3255.79 225.48C3254.71 388.29 3255.63 551.047 3255.74 713.856C3251.62 736.368 3267.78 784.439 3234.59 785.831C3214.17 790.953 3198.66 779.448 3201.36 757.645C3201.36 669.962 3201.36 582.306 3201.36 494.623C3201.41 494.649 3201.44 494.649 3201.49 494.649Z" fill="#0D3B70"/>
<path d="M1879.47 1431.47C1879.1 1347.81 1880.52 1264.12 1878.37 1180.48C1871.44 1130.81 1910.12 1140.5 1945 1141.5C1960.06 1141.95 1959.91 1160.05 1959.7 1171.45C1956.86 1329.61 1957.96 1487.95 1959.7 1646.14C1962.14 1678.87 1922.74 1664.52 1902.46 1667.52C1883.69 1668.75 1879.15 1654.28 1879.78 1638.13C1879.76 1569.25 1879.76 1500.38 1879.76 1431.47C1879.68 1431.47 1879.57 1431.47 1879.47 1431.47Z" fill="#0D3B70"/>
<path d="M3498.6 519.289C3497.76 447.577 3499.67 375.839 3499.44 304.18C3503.84 271.397 3482.38 161.859 3515.05 151.3C3577.09 135.749 3549.61 210.823 3555.91 247.651C3553.03 419.208 3555.91 590.791 3554.84 762.374C3562.42 792.687 3507.96 797.547 3500.96 774.431C3495.6 689.69 3499.83 604.266 3498.54 519.289C3498.54 519.289 3498.57 519.289 3498.6 519.289Z" fill="#0D3B70"/>
<path d="M1946.71 196.927C1943 383.614 1946.08 570.328 1944.24 757.041C1949.62 790.691 1901.88 796.575 1895.03 767.023C1889.07 566.545 1890.94 365.017 1891.51 164.434C1894.22 144.995 1919.73 148.279 1934 150.459C1954.5 154.662 1944.5 181.902 1946.71 196.927Z" fill="#0D3B70"/>
<path d="M1922.01 994.453C1861.55 997.92 1838.29 912.47 1893.67 888.277C1981.92 848.586 2018.82 989.094 1922.01 994.453Z" fill="#0D3B70"/>
</g>
<defs>
<clipPath id="clip0_5756_1113">
<rect width="3809.58" height="1782.21" fill="white" transform="translate(1862.31 148.095)"/>
</clipPath>
</defs>
</svg>
